<svg width="73" height="73" viewBox="0 0 73 73" fill="none" xmlns="http://www.w3.org/2000/svg">
<circle cx="36.5" cy="36.5" r="36.5" fill="#191619"/>
<path fill-rule="evenodd" clip-rule="evenodd" d="M56.2916 54.9646C50.9273 58.9039 43.1488 61 36.4519 61C27.0665 61 18.6137 57.5467 12.217 51.7989C11.7143 51.3475 12.1634 50.7314 12.7659 51.0809C19.6675 55.0769 28.2007 57.4837 37.0147 57.4837C42.9612 57.4837 49.4972 56.2556 55.5112 53.7176C56.4181 53.3345 57.1792 54.3127 56.2916 54.9646ZM58.5235 51.4105C57.8374 50.5361 53.9879 50.9959 52.2587 51.2027C51.7345 51.2656 51.653 50.8101 52.1258 50.4795C55.196 48.3329 60.228 48.9533 60.8123 49.6712C61.4019 50.3965 60.659 55.417 57.7806 57.8122C57.3379 58.1807 56.9166 57.9844 57.1128 57.4973C57.7603 55.8882 59.2107 52.2848 58.5235 51.4105Z" fill="#FF9900"/>
<path fill-rule="evenodd" clip-rule="evenodd" d="M45.3382 44.5153C44.9635 44.8578 44.4249 44.8815 44.0041 44.65C42.127 43.0559 41.7919 42.3192 40.7661 40.8016C37.6662 44.0306 35.4701 45 31.4537 45C26.6984 45 23 42.0004 23 36.0001C23 31.3127 25.4842 28.1268 29.0241 26.5629C32.0886 25.1886 36.3685 24.9387 39.6429 24.5628V23.8132C39.6429 22.4378 39.7499 20.8136 38.9576 19.6256C38.2701 18.5636 36.9488 18.1263 35.787 18.1263C33.6327 18.1263 31.7171 19.254 31.247 21.5944C31.1485 22.1136 30.778 22.6284 30.2651 22.6543L24.7914 22.049C24.3288 21.9413 23.8148 21.5643 23.9487 20.8427C25.2068 14.0518 31.2042 12 36.5783 12C39.327 12 42.9194 12.7507 45.0866 14.8757C47.8331 17.5005 47.5697 21.001 47.5697 24.8138V33.8094C47.5697 36.5149 48.6683 37.7018 49.7005 39.1602C50.0614 39.6858 50.1427 40.3105 49.6834 40.6939C48.2245 41.955 46.7803 43.2332 45.3511 44.5282L45.3382 44.5175V44.5153ZM39.6429 30.4382C39.6429 32.6892 39.6964 34.5633 38.5871 36.5623C37.6887 38.1887 36.2635 39.1871 34.6767 39.1871C32.5105 39.1871 31.2427 37.4994 31.2427 34.9995C31.2427 30.0817 35.5579 29.1877 39.6429 29.1877V30.4382Z" fill="white"/>
</svg>
