<svg width="124" height="138" viewBox="0 0 124 138" fill="none" xmlns="http://www.w3.org/2000/svg">
<path d="M96.0223 66C106.552 66.01 117.842 71.42 121.712 81.8C124.239 88.5867 123.092 95.1267 118.272 101.42C118.079 101.667 117.982 101.853 117.982 101.98C117.982 102.107 118.079 102.297 118.272 102.55C123.092 108.837 124.236 115.373 121.702 122.16C117.822 132.54 106.522 137.94 95.9923 137.94C85.4723 137.94 74.1723 132.52 70.3023 122.14C67.7756 115.353 68.9256 108.817 73.7523 102.53C73.9389 102.277 74.0323 102.087 74.0323 101.96C74.0323 101.833 73.9389 101.647 73.7523 101.4C68.9323 95.1067 67.7889 88.5667 70.3223 81.78C74.1923 71.41 85.5023 66 96.0223 66ZM110.942 88.64C110.942 87.248 110.556 85.8696 109.805 84.5836C109.054 83.2975 107.954 82.129 106.566 81.1447C105.179 80.1604 103.532 79.3796 101.72 78.8469C99.9069 78.3142 97.9642 78.04 96.0023 78.04C94.0403 78.04 92.0976 78.3142 90.285 78.8469C88.4724 79.3796 86.8254 80.1604 85.4381 81.1447C84.0508 82.129 82.9503 83.2975 82.1995 84.5836C81.4487 85.8696 81.0623 87.248 81.0623 88.64C81.0623 91.4513 82.6363 94.1474 85.4381 96.1353C88.2399 98.1232 92.0399 99.24 96.0023 99.24C99.9646 99.24 103.765 98.1232 106.566 96.1353C109.368 94.1474 110.942 91.4513 110.942 88.64ZM96.0123 125.96C100.802 125.96 105.632 124.28 108.892 120.61C111.932 117.18 111.482 112.78 108.492 109.48C108.33 109.302 108.118 109.176 107.885 109.119C107.651 109.062 107.407 109.076 107.182 109.16C103.476 110.553 99.7523 111.25 96.0123 111.25C92.2723 111.25 88.5456 110.557 84.8323 109.17C84.6102 109.087 84.3683 109.073 84.137 109.128C83.9056 109.183 83.6952 109.306 83.5323 109.48C80.5423 112.79 80.0923 117.19 83.1323 120.61C86.3923 124.29 91.2223 125.96 96.0123 125.96Z" fill="#0B071C"/>
<path d="M29.6252 46.1083C21.4986 43.855 14.4252 40.1283 8.40524 34.9283C8.28989 34.8269 8.21882 34.6847 8.20757 34.5328C8.19633 34.381 8.24582 34.2319 8.34524 34.1183L15.4452 26.0183C15.5747 25.8697 15.7574 25.778 15.9539 25.7631C16.1503 25.7481 16.3448 25.8111 16.4953 25.9383C23.6086 31.9317 31.6419 35.2483 40.5952 35.8883C40.6758 35.8927 40.7559 35.8731 40.8254 35.8321C40.895 35.7911 40.9508 35.7305 40.9861 35.6579C41.0213 35.5853 41.0343 35.5039 41.0235 35.424C41.0127 35.344 40.9785 35.269 40.9253 35.2083L20.1552 12.3683C20.1029 12.3117 20.0639 12.2441 20.0409 12.1704C20.0178 12.0966 20.0113 12.0184 20.0218 11.9413C20.0322 11.8642 20.0594 11.79 20.1015 11.7238C20.1435 11.6577 20.1994 11.6012 20.2653 11.5583C43.5319 -3.72166 66.8286 -3.85166 90.1552 11.1683C90.2372 11.2222 90.3072 11.2925 90.3606 11.3747C90.4141 11.4569 90.4499 11.5493 90.4659 11.6461C90.4819 11.7429 90.4776 11.8419 90.4534 11.9369C90.4292 12.032 90.3856 12.121 90.3252 12.1983L69.3053 39.1783C69.2607 39.2362 69.2298 39.3035 69.2152 39.3749C69.2005 39.4463 69.2025 39.5199 69.221 39.5898C69.2394 39.6597 69.2738 39.724 69.3214 39.7775C69.369 39.8311 69.4286 39.8724 69.4953 39.8983C76.9819 43.0117 83.4786 47.935 88.9853 54.6683C89.0276 54.721 89.0559 54.7835 89.0676 54.8501C89.0792 54.9167 89.0738 54.9851 89.0518 55.049C89.0298 55.1129 88.992 55.1702 88.9419 55.2156C88.8918 55.2609 88.831 55.2928 88.7653 55.3083C85.1653 56.1217 81.6586 57.465 78.2453 59.3383C78.0968 59.42 77.9298 59.4612 77.7612 59.4577C77.5926 59.4542 77.4284 59.4061 77.2852 59.3183C77.2586 59.305 76.2653 58.4483 74.3053 56.7483C59.6953 44.1183 41.6752 48.4983 30.4052 63.0083C21.7952 74.0883 16.4053 87.4083 13.1453 101.238C12.0853 105.698 11.2653 108.988 12.8653 112.678C15.3853 118.478 19.2753 120.058 25.8053 120.038C38.2119 119.998 49.5053 119.992 59.6853 120.018C59.7207 120.018 59.7558 120.025 59.7886 120.039C59.8213 120.052 59.8511 120.072 59.8762 120.097C59.9013 120.122 59.9211 120.152 59.9347 120.185C59.9483 120.218 59.9553 120.253 59.9553 120.288V131.668C59.9553 131.756 59.9194 131.84 59.8557 131.902C59.7919 131.964 59.7054 131.998 59.6153 131.998C42.0553 131.985 30.1153 131.988 23.7953 132.008C11.5953 132.038 2.04525 123.418 0.205255 111.568C-0.361412 107.908 0.245262 102.698 2.02526 95.9383C6.87526 77.5283 15.3352 59.3983 29.7852 46.8283C29.8434 46.778 29.887 46.7127 29.9114 46.6397C29.9358 46.5666 29.9399 46.4887 29.9234 46.4143C29.9069 46.34 29.8703 46.2721 29.8177 46.2181C29.7651 46.1641 29.6985 46.1262 29.6252 46.1083ZM39.1453 15.3783L55.9253 33.8283C56.0781 33.9975 56.2662 34.1311 56.4763 34.2197C56.6864 34.3083 56.9134 34.3497 57.1413 34.3412C57.3691 34.3326 57.5923 34.2742 57.7951 34.17C57.998 34.0659 58.1755 33.9185 58.3152 33.7383L72.2952 15.8083C72.3313 15.7628 72.3558 15.7093 72.3667 15.6521C72.3777 15.5949 72.3748 15.5357 72.3582 15.4792C72.3417 15.4228 72.3119 15.3706 72.2715 15.327C72.231 15.2835 72.1809 15.2496 72.1252 15.2283C61.0652 11.0283 50.0919 11.0017 39.2053 15.1483C39.1825 15.1554 39.162 15.1681 39.1456 15.1853C39.1292 15.2025 39.1174 15.2237 39.1114 15.2467C39.1054 15.2697 39.1053 15.2939 39.1113 15.3169C39.1172 15.3399 39.1289 15.3611 39.1453 15.3783Z" fill="#0B071C"/>
</svg>
